<svg t="1587697706620" class="icon" viewBox="0 0 1024 1024" version="1.1" xmlns="http://www.w3.org/2000/svg" p-id="6545" width="17" height="17"><path d="M512 950.848q-14.848 0-25.152-10.272l-356.576-344q-5.728-4.576-15.712-14.848t-31.712-37.44-38.848-55.712-30.56-69.152-13.44-78.848q0-125.728 72.576-196.576t200.576-70.848q35.424 0 72.288 12.288t68.576 33.152 54.56 39.136 43.424 38.848q20.576-20.576 43.424-38.848t54.56-39.136 68.576-33.152 72.288-12.288q128 0 200.576 70.848t72.576 196.576q0 126.272-130.848 257.152l-356 342.848q-10.272 10.272-25.152 10.272z" p-id="6546" fill="#d81e06"></path></svg>